<?xml version="1.0" encoding="utf-8"?>
<svg width="96" height="96" viewBox="0 0 96 96" fill="none" xmlns="http://www.w3.org/2000/svg">
  <path d="M47.8035 94.3753C46.5544 94.3753 45.3053 94.1878 44.0562 93.8129C42.8071 93.438 41.558 92.8756 40.3089 92.1257C39.0598 91.3758 37.8107 90.4384 36.5616 89.3135C35.3125 88.1886 34.0634 86.8762 32.8143 85.3763C31.5652 83.8764 30.3161 82.189 29.067 80.3141C27.8179 78.4392 26.5688 76.3768 25.3197 74.1269C24.0706 71.877 22.8215 69.4396 21.5724 66.8147C20.3233 64.1898 19.0742 61.3774 17.8251 58.3775C16.576 55.3776 15.3269 52.1902 14.0778 48.8153C12.8287 45.4404 11.5796 41.878 10.3305 38.1281C9.08141 34.3782 7.83231 30.4408 6.58321 26.3159C5.33411 22.191 4.08501 17.8786 2.83591 13.3787C1.58681 8.87881 0.337708 4.19141 -0.911392 -0.683472L47.8035 -0.683472L96.5184 -0.683472C95.2693 4.19141 94.0202 8.87881 92.7711 13.3787C91.522 17.8786 90.2729 22.191 89.0238 26.3159C87.7747 30.4408 86.5256 34.3782 85.2765 38.1281C84.0274 41.878 82.7783 45.4404 81.5292 48.8153C80.2801 52.1902 79.031 55.3776 77.7819 58.3775C76.5328 61.3774 75.2837 64.1898 74.0346 66.8147C72.7855 69.4396 71.5364 71.877 70.2873 74.1269C69.0382 76.3768 67.7891 78.4392 66.54 80.3141C65.2909 82.189 64.0418 83.8764 62.7927 85.3763C61.5436 86.8762 60.2945 88.1886 59.0454 89.3135C57.7963 90.4384 56.5472 91.3758 55.2981 92.1257C54.049 92.8756 52.7999 93.438 51.5508 93.8129C50.3017 94.1878 49.0526 94.3753 47.8035 94.3753Z" fill="url(#paint0_linear_1_2)"/>
  <defs>
    <linearGradient id="paint0_linear_1_2" x1="47.8035" y1="-0.683472" x2="47.8035" y2="94.3753" gradientUnits="userSpaceOnUse">
      <stop offset="0.3125" stop-color="#10AA50"/>
      <stop offset="1" stop-color="#B8C4C2"/>
    </linearGradient>
  </defs>
</svg>
